<?xml version="1.0" encoding="UTF-8" standalone="no"?>
<svg width="181px" height="26px" viewBox="0 0 181 26" version="1.1" xmlns="http://www.w3.org/2000/svg" xmlns:xlink="http://www.w3.org/1999/xlink">
    <!-- Generator: Sketch 39.1 (31720) - http://www.bohemiancoding.com/sketch -->
    <title>logo-white</title>
    <desc>Created with Sketch.</desc>
    <defs></defs>
    <g id="Page-1" stroke="none" stroke-width="1" fill="none" fill-rule="evenodd">
        <g id="Sprint-42-page" transform="translate(-100.000000, -4049.000000)" fill="#FFFFFF">
            <g id="Footer" transform="translate(0.000000, 3949.000000)">
                <g id="logo-white" transform="translate(100.000000, 100.000000)">
                    <path d="M17.816,7.854 C17.4306647,7.4006644 16.9320031,7.03233475 16.32,6.749 C15.7079969,6.46566525 14.9940041,6.324 14.178,6.324 C13.5433302,6.324 12.9710025,6.45999864 12.461,6.732 C11.9509974,7.00400136 11.696,7.4233305 11.696,7.99 C11.696,8.4433356 11.9113312,8.79466542 12.342,9.044 C12.7726688,9.29333458 13.4073291,9.55399864 14.246,9.826 C15.2886719,10.1660017 16.2179959,10.5513312 17.034,10.982 C17.8500041,11.4126688 18.5413305,11.9113305 19.108,12.478 C19.6746695,13.0446695 20.1109985,13.690663 20.417,14.416 C20.7230015,15.141337 20.876,15.9573288 20.876,16.864 C20.876,18.405341 20.5360034,19.7199946 19.856,20.808 C19.1759966,21.8960054 18.3090053,22.7799966 17.255,23.46 C16.2009947,24.1400034 15.0393397,24.6386651 13.77,24.956 C12.5006603,25.2733349 11.2653393,25.432 10.064,25.432 C9.11199524,25.432 8.16000476,25.3526675 7.208,25.194 C6.25599524,25.0353325 5.34367103,24.8086681 4.471,24.514 C3.59832897,24.2193319 2.77667052,23.8566688 2.006,23.426 C1.23532948,22.9953312 0.5666695,22.5080027 -2.27373675e-13,21.964 L5.372,17 C5.64400136,17.3173349 5.97266474,17.6006654 6.358,17.85 C6.74333526,18.0993346 7.14566457,18.3089992 7.565,18.479 C7.98433543,18.6490008 8.40933118,18.7849995 8.84,18.887 C9.27066882,18.9890005 9.66733152,19.04 10.03,19.04 C10.8233373,19.04 11.4579976,18.909668 11.934,18.649 C12.4100024,18.388332 12.648,18.0086692 12.648,17.51 C12.648,17.101998 12.4496686,16.7393349 12.053,16.422 C11.6563313,16.1046651 10.9140054,15.7760017 9.826,15.436 C8.96466236,15.1639986 8.15433713,14.8466685 7.395,14.484 C6.63566287,14.1213315 5.97833611,13.6850026 5.423,13.175 C4.86766389,12.6649974 4.43133492,12.0530036 4.114,11.339 C3.79666508,10.6249964 3.638,9.7580051 3.638,8.738 C3.638,7.4913271 3.89299745,6.33533866 4.403,5.27 C4.91300255,4.20466134 5.63832863,3.28100391 6.579,2.499 C7.51967137,1.71699609 8.64166015,1.10500221 9.945,0.663 C11.2483398,0.22099779 12.6819922,0 14.246,0 C15.1073376,0 15.9573291,0.07366593 16.796,0.221 C17.6346709,0.36833407 18.4279963,0.57233203 19.176,0.833 C19.9240037,1.09366797 20.6153302,1.40533152 21.25,1.768 C21.8846698,2.13066848 22.4173312,2.5386644 22.848,2.992 L17.816,7.854 Z M30.226,24.752 L22.406,24.752 L26.656,0.68 L35.632,0.68 C38.7373489,0.68 41.1116584,1.32599354 42.755,2.618 C44.3983415,3.91000646 45.22,5.689322 45.22,7.956 C45.22,9.49734104 44.9650025,10.834661 44.455,11.968 C43.9449974,13.101339 43.2026715,14.030663 42.228,14.756 C41.2533285,15.481337 40.0746736,16.0196649 38.692,16.371 C37.3093264,16.7223351 35.7340088,16.898 33.966,16.898 L31.654,16.898 L30.226,24.752 Z M33.932,10.982 C35.0200054,10.982 35.8699969,10.8006685 36.482,10.438 C37.0940031,10.0753315 37.4,9.50867052 37.4,8.738 C37.4,8.01266304 37.1506692,7.51400136 36.652,7.242 C36.1533308,6.96999864 35.4733376,6.834 34.612,6.834 L33.422,6.834 L32.674,10.982 L33.932,10.982 Z M58.854,24.752 L55.556,15.946 L54.604,15.946 L53.108,24.752 L45.526,24.752 L49.776,0.68 L59.67,0.68 C60.9846732,0.68 62.1746613,0.82733186 63.24,1.122 C64.3053387,1.41666814 65.2119963,1.8473305 65.96,2.414 C66.7080037,2.9806695 67.2803314,3.67766253 67.677,4.505 C68.0736687,5.33233747 68.272,6.27866134 68.272,7.344 C68.272,9.33867664 67.8016714,10.9819935 66.861,12.274 C65.9203286,13.5660065 64.6340082,14.4499976 63.002,14.926 L67.694,24.752 L58.854,24.752 Z M57.12,10.948 C58.1626719,10.948 58.9786637,10.7723351 59.568,10.421 C60.1573363,10.0696649 60.452,9.50867052 60.452,8.738 C60.452,8.03532982 60.2083358,7.55366797 59.721,7.293 C59.2336642,7.03233203 58.5706709,6.902 57.732,6.902 L56.27,6.902 L55.556,10.948 L57.12,10.948 Z M69.462,24.752 L73.712,0.68 L81.634,0.68 L77.384,24.752 L69.462,24.752 Z M96.356,24.752 L91.596,12.818 L91.46,12.818 L89.59,24.752 L81.94,24.752 L86.19,0.68 L93.908,0.68 L98.77,13.226 L98.906,13.226 L100.878,0.68 L108.528,0.68 L104.278,24.752 L96.356,24.752 Z M123.556,7.31 L120.496,24.752 L112.608,24.752 L115.668,7.31 L109.582,7.31 L110.772,0.68 L130.628,0.68 L129.438,7.31 L123.556,7.31 Z" id="SPRINT-"></path>
                    <polygon id="Path" points="129 17.712 130.02 12 139.302 12 138.282 17.712"></polygon>
                    <path d="M153.118,19.686 L142,19.686 L142,16.082 L152.234,0.612 L157.13,0.612 L157.13,16.184 L160.496,16.184 L160.496,19.686 L157.13,19.686 L157.13,24.684 L153.118,24.684 L153.118,19.686 Z M153.118,5.406 L153.05,5.406 L146.216,16.184 L153.118,16.184 L153.118,5.406 Z M164.372,20.944 L173.654,11.832 C174.402004,11.106663 174.996998,10.3756703 175.439,9.639 C175.881002,8.90232965 176.102,8.05800476 176.102,7.106 C176.102,5.972661 175.73367,5.07167001 174.997,4.403 C174.26033,3.73432999 173.348005,3.4 172.26,3.4 C171.103994,3.4 170.17467,3.79099609 169.472,4.573 C168.76933,5.35500391 168.338667,6.33532744 168.18,7.514 L164.202,6.902 C164.315334,5.90466168 164.598664,4.98667086 165.052,4.148 C165.505336,3.30932914 166.08333,2.58400306 166.786,1.972 C167.48867,1.35999694 168.310329,0.87833509 169.251,0.527 C170.191671,0.17566491 171.217328,0 172.328,0 C173.370672,0 174.373662,0.14733186 175.337,0.442 C176.300338,0.73666814 177.155996,1.18433033 177.904,1.785 C178.652004,2.38566967 179.246998,3.12232897 179.689,3.995 C180.131002,4.86767103 180.352,5.88199422 180.352,7.038 C180.352,7.80867052 180.250001,8.52832999 180.046,9.197 C179.841999,9.86567001 179.564335,10.4946637 179.213,11.084 C178.861665,11.6733363 178.453669,12.2343307 177.989,12.767 C177.524331,13.2996693 177.020003,13.8153308 176.476,14.314 L169.54,20.944 L180.386,20.944 L180.386,24.684 L164.372,24.684 L164.372,20.944 Z" id="42-copy"></path>
                </g>
            </g>
        </g>
    </g>
</svg>